#!OML:ASF X:\für Bonn\!DataBase\2005_08_12_Daniel\c3d\Daniel.ASF
:FULLY-SPECIFIED
:DEGREES
183
root 1.81079 15.0817 2.62905 710.453 -141.938 2.43695
lowerback 44.2872 -4.96326 3.88874
upperback 12.8153 -8.43216 -0.383823
thorax -6.49081 -5.48542 1.26415
lowerneck 0.896755 4.65744 1.78212
upperneck -0.400096 6.17014 -7.42877
head 0.0307434 3.09213 -2.6508
rclavicle -3.89618e-014 5.00937e-014
rhumerus -42.0481 7.14149 -88.1482
rradius 115.85
rwrist 9.79862
rhand -40.8302 9.07396
rfingers 7.12502
rthumb -13.768 -20.4505
lclavicle -3.89618e-014 5.00937e-014
lhumerus 156.71 169.802 263.751
lradius 104.597
lwrist -24.599
lhand -30.7187 3.72736
lfingers 7.12502
lthumb -4.01145 33.6693
rfemur -46.8386 0.505163 26.7704
rtibia 62.8224
rfoot -8.3827 9.08645
rtoes -3.8158
lfemur 12.6296 7.90399 -19.6136
ltibia 64.7693
lfoot -21.191 -6.19947
ltoes -7.84039
184
root 1.71373 15.1069 2.51239 710.623 -142.061 2.45256
lowerback 44.4566 -4.91056 3.97027
upperback 12.7641 -8.32136 -0.359679
thorax -6.5929 -5.43024 1.22073
lowerneck 0.676685 4.66026 1.59686
upperneck -0.299792 6.17708 -7.39501
head 0.0930994 3.08876 -2.59823
rclavicle -5.24792e-014 -5.32743e-014
rhumerus -42.0194 7.06239 -88.1086
rradius 115.786
rwrist 9.74508
rhand -40.995 8.82676
rfingers 7.12502
rthumb -13.9268 -20.6868
lclavicle -5.24792e-014 -5.32743e-014
lhumerus 156.536 169.851 263.54
lradius 104.577
lwrist -24.5143
lhand -30.7551 3.532
lfingers 7.12502
lthumb -4.04661 33.4733
rfemur -46.6474 0.465613 26.876
rtibia 63.2342
rfoot -8.86448 9.36022
rtoes -3.55903
lfemur 12.1751 7.854 -19.4859
ltibia 65.4807
lfoot -18.8947 -6.60173
ltoes -7.48816
185
root 1.61819 15.1301 2.39665 710.722 -142.159 2.45107
lowerback 44.672 -4.88577 4.02282
upperback 12.7427 -8.2718 -0.36446
thorax -6.67559 -5.40872 1.18736
lowerneck 0.480399 4.70707 1.39093
upperneck -0.232535 6.24272 -7.32636
head 0.14175 3.11629 -2.53145
rclavicle -4.13472e-014 3.97569e-014
rhumerus -41.8897 7.08403 -88.1487
rradius 115.644
rwrist 9.78056
rhand -41.1037 8.53721
rfingers 7.12502
rthumb -14.0315 -20.9692
lclavicle -4.13472e-014 3.97569e-014
lhumerus 156.248 169.862 263.261
lradius 104.726
lwrist -24.3001
lhand -30.838 3.34149
lfingers 7.12502
lthumb -4.12668 33.2813
rfemur -46.3478 0.477414 26.9544
rtibia 63.6257
rfoot -9.44954 9.49054
rtoes -3.42378
lfemur 11.7336 7.79872 -19.3532
ltibia 66.2993
lfoot -16.622 -6.91557
ltoes -7.37646
186
root 1.52578 15.1526 2.28381 710.833 -142.229 2.42166
lowerback 44.9073 -4.83728 4.06628
upperback 12.6985 -8.1871 -0.351969
thorax -6.78501 -5.36886 1.16499
lowerneck 0.341495 4.71796 1.1336
upperneck -0.180167 6.25767 -7.27523
head 0.172187 3.11914 -2.46383
rclavicle -4.45278e-014 -1.43125e-014
rhumerus -41.8402 7.0689 -88.1065
rradius 115.591
rwrist 9.87351
rhand -41.1401 8.1601
rfingers 7.12502
rthumb -14.0666 -21.3438
lclavicle -4.45278e-014 -1.43125e-014
lhumerus 155.907 169.905 263.061
lradius 104.948
lwrist -24.1827
lhand -30.8451 3.15968
lfingers 7.12502
lthumb -4.13354 33.0993
rfemur -46.0543 0.484252 26.9914
rtibia 63.9878
rfoot -9.97396 9.63727
rtoes -3.37967
lfemur 11.1996 7.74729 -19.1966
ltibia 67.2467
lfoot -14.5046 -7.32633
ltoes -7.22138
187
root 1.4372 15.1715 2.1733 710.91 -142.234 2.37589
lowerback 45.1597 -4.83565 4.1496
upperback 12.661 -8.14696 -0.41109
thorax -6.90494 -5.34559 1.06719
lowerneck 0.346819 4.71038 0.968207
upperneck -0.21842 6.24335 -7.21751
head 0.151098 3.11266 -2.41639
rclavicle 4.13472e-014 -6.67916e-014
rhumerus -41.8053 7.06162 -88.1783
rradius 115.49
rwrist 9.95462
rhand -41.2024 7.8824
rfingers 7.12502
rthumb -14.1266 -21.6174
lclavicle 4.13472e-014 -6.67916e-014
lhumerus 155.641 169.985 262.785
lradius 105.082
lwrist -24.0081
lhand -30.9294 2.91461
lfingers 7.12502
lthumb -4.21492 32.8527
rfemur -45.7131 0.48608 26.9995
rtibia 64.3296
rfoot -10.4619 9.64788
rtoes -3.21141
lfemur 10.6137 7.66495 -19.0422
ltibia 68.3269
lfoot -12.6456 -7.70086
ltoes -7.80839
188
root 1.35049 15.1909 2.06925 710.941 -142.257 2.41967
lowerback 45.4353 -4.83648 4.28459
upperback 12.6085 -8.08087 -0.431674
thorax -7.04368 -5.31072 0.975971
lowerneck 0.320516 4.70353 0.757876
upperneck -0.225853 6.23158 -7.14165
head 0.14309 3.10606 -2.35379
rclavicle 2.22639e-014 -9.46215e-014
rhumerus -41.7339 7.06254 -88.1728
rradius 115.379
rwrist 10.0836
rhand -41.2164 7.71074
rfingers 7.12502
rthumb -14.1402 -21.7881
lclavicle 2.22639e-014 -9.46215e-014
lhumerus 155.408 170.001 262.565
lradius 105.21
lwrist -23.8688
lhand -30.8827 2.74646
lfingers 7.12502
lthumb -4.1699 32.6854
rfemur -45.3799 0.458848 27.0906
rtibia 64.6293
rfoot -10.9204 9.70751
rtoes -2.82491
lfemur 9.90368 7.56488 -18.817
ltibia 69.5389
lfoot -11.0486 -8.0256
ltoes -8.45434
189
root 1.26784 15.2107 1.96611 710.976 -142.249 2.37731
lowerback 45.7334 -4.80288 4.29928
upperback 12.5941 -8.03919 -0.451775
thorax -7.13639 -5.29511 0.95245
lowerneck 0.255829 4.70861 0.498247
upperneck -0.242202 6.2356 -7.0538
head 0.137482 3.10682 -2.27777
rclavicle 5.56597e-014 2.54444e-014
rhumerus -41.6462 7.15891 -88.1878
rradius 115.316
rwrist 10.2011
rhand -41.2211 7.51189
rfingers 7.12502
rthumb -14.1447 -21.9866
lclavicle 5.56597e-014 2.54444e-014
lhumerus 155.222 169.906 262.402
lradius 105.348
lwrist -23.7481
lhand -30.8218 2.48559
lfingers 7.12502
lthumb -4.11105 32.4257
rfemur -44.9931 0.513297 27.0902
rtibia 64.9125
rfoot -11.3859 9.62478
rtoes -2.82608
lfemur 9.19037 7.46006 -18.6523
ltibia 70.8078
lfoot -9.70644 -8.34179
ltoes -8.87627
190
root 1.18589 15.2293 1.86429 710.997 -142.254 2.37797
lowerback 46.0105 -4.76873 4.36347
upperback 12.5573 -7.96542 -0.461859
thorax -7.24959 -5.26087 0.901447
lowerneck 0.249306 4.69861 0.26717
upperneck -0.265229 6.2186 -6.95943
head 0.119824 3.09844 -2.20686
rclavicle -1.98785e-014 6.2816e-014
rhumerus -41.5318 7.19652 -88.1472
rradius 115.231
rwrist 10.3021
rhand -41.1225 7.42525
rfingers 7.12502
rthumb -14.0496 -22.0799
lclavicle -1.98785e-014 6.2816e-014
lhumerus 155.025 169.872 262.24
lradius 105.423
lwrist -23.6775
lhand -30.8889 2.30795
lfingers 7.12502
lthumb -4.17589 32.2468
rfemur -44.5996 0.556098 27.1324
rtibia 65.1607
rfoot -11.8949 9.60878
rtoes -2.65326
lfemur 8.37629 7.3246 -18.4942
ltibia 72.1574
lfoot -8.71814 -8.55872
ltoes -8.62768
